# xmcd
#
# Track frame offsets:
#   150
#   15177
#   34477
#   57601
#
# Disc length: 983 seconds
#
# Revision: 2
# Processed by: cddbd v1.5.2PL0 Copyright (c) Steve Scherf et al.
# Submitted via: Media_Universe 3.0
#
DISCID=2d03d504
DTITLE=Whitesnake - Whitesnake - Little Box 'O' Snakes
DYEAR=2013
DGENRE=Hard Rock
TTITLE0=Whitesnake - Bloody Mary
TTITLE1=Whitesnake - Steal Away
TTITLE2=Whitesnake - Ain't No Love In The Heart Of The City
TTITLE3=Whitesnake - Come On
EXTD=
EXTT0=
EXTT1=
EXTT2=
EXTT3=
PLAYORDER=
